<?xml version="1.0" encoding="UTF-8"?>
<svg width="419px" height="536px" viewBox="0 0 419 536" version="1.1" xmlns="http://www.w3.org/2000/svg" xmlns:xlink="http://www.w3.org/1999/xlink">
    <!-- Generator: Sketch 63.1 (92452) - https://sketch.com -->
    <title>logo</title>
    <desc>Created with Sketch.</desc>
    <g id="logo" stroke="none" stroke-width="1" fill="none" fill-rule="evenodd">
        <g id="White-Vertical-LPL-Logo" fill="#FFFFFF" fill-rule="nonzero">
            <polygon id="Path" points="0 438.76 0 394.05 7.49 394.05 7.49 431.65 24.1 431.65 24.1 438.76"></polygon>
            <path d="M55.29,430 C55.49,432.27 56.39,432.85 58.29,433.3 L57.83,439.5 C53.25,439.5 51.05,438.66 49.11,437.24 C46.1537466,438.628724 42.9445903,439.397832 39.68,439.5 C34.06,439.5 29.79,435.43 29.79,429.16 C29.79,422.51 33.99,419.8 40.39,419.34 L47.95,418.7 L47.95,416.6 C47.95,413.89 46.66,412.53 44.2,412.53 C38.39,412.53 31.67,413.18 31.67,413.18 L31.41,407.1 C35.7726996,406.389219 40.1737964,405.938424 44.59,405.75 C51.5,405.75 55.31,408.75 55.31,416.67 L55.29,430 Z M41.21,424.58 C38.5,424.71 37.21,426.52 37.21,428.97 C37.21,431.42 38.57,433.3 40.7,433.3 C43.1585951,433.203774 45.5918803,432.766254 47.93,432 L47.93,424.18 L41.21,424.58 Z" id="Shape"></path>
            <path d="M91.72,406.52 L91.72,438.76 L84.36,438.76 L84.36,437.15 C84.36,437.15 79.58,439.47 76.22,439.47 C67.95,439.47 65.3,434.56 65.3,423.38 L65.3,406.52 L72.66,406.52 L72.66,423.32 C72.66,430.04 73.57,433.01 77.66,433.01 C80.38,433.01 84.32,431.33 84.32,431.33 L84.32,406.52 L91.72,406.52 Z" id="Path"></path>
            <path d="M101.92,438.76 L101.92,406.52 L109.29,406.52 L109.29,408.14 C109.29,408.14 114,405.75 117.56,405.75 C126.02,405.75 128.56,411.69 128.56,421.9 L128.56,438.76 L121.19,438.76 L121.19,422 C121.19,416.51 120.42,412.51 116.19,412.51 C113.841576,412.696878 111.535218,413.239749 109.35,414.12 L109.35,438.8 L101.92,438.76 Z" id="Path"></path>
            <path d="M158.83,406.78 L158.57,413.05 C158.57,413.05 153.86,412.53 151.4,412.53 C145.59,412.53 143.58,415.37 143.58,422.22 C143.58,429.33 145.46,432.75 151.46,432.75 C153.92,432.75 158.64,432.3 158.64,432.3 L158.83,438.57 C155.646179,439.103947 152.427624,439.404746 149.2,439.47 C139.9,439.47 136.09,433.85 136.09,422.22 C136.09,411.37 140.29,405.75 149.4,405.75 C152.567624,405.813539 155.72335,406.158226 158.83,406.78 Z" id="Path"></path>
            <path d="M166.32,438.76 L166.32,393.15 L173.68,393.15 L173.68,407.56 C173.68,407.56 178.53,405.75 181.95,405.75 C190.41,405.75 192.95,411.69 192.95,421.83 L192.95,438.76 L185.5,438.76 L185.5,421.83 C185.5,416.41 184.79,412.47 180.5,412.47 C178.172946,412.621765 175.872853,413.054921 173.65,413.76 L173.65,438.76 L166.32,438.76 Z" id="Path"></path>
            <path d="M210.43,425.26 L210.43,438.76 L202.87,438.76 L202.87,394.05 L218.44,394.05 C228.07,394.05 233.63,399.22 233.63,409.23 C233.63,419.24 228.07,425.23 218.44,425.23 L210.43,425.26 Z M218.38,418.26 C223.48,418.26 225.87,414.51 225.87,409.26 C225.87,404.01 223.48,401.06 218.38,401.06 L210.43,401.06 L210.43,418.31 L218.38,418.26 Z" id="Shape"></path>
            <path d="M264.82,430 C265.01,432.27 265.92,432.85 267.82,433.3 L267.37,439.5 C262.78,439.5 260.59,438.66 258.65,437.24 C255.693747,438.628724 252.48459,439.397832 249.22,439.5 C243.6,439.5 239.33,435.43 239.33,429.16 C239.33,422.51 243.53,419.8 249.93,419.34 L257.49,418.7 L257.49,416.6 C257.49,413.89 256.19,412.53 253.74,412.53 C247.92,412.53 241.2,413.18 241.2,413.18 L240.95,407.1 C245.312619,406.388609 249.713752,405.93781 254.13,405.75 C261.04,405.75 264.85,408.75 264.85,416.67 L264.82,430 Z M250.73,424.58 C248.02,424.71 246.73,426.52 246.73,428.97 C246.73,431.42 248.09,433.3 250.22,433.3 C252.681351,433.206644 255.117877,432.772512 257.46,432.01 L257.46,424.19 L250.73,424.58 Z" id="Shape"></path>
            <path d="M300.28,438.76 L292.85,438.76 L292.85,437.28 C290.447306,438.541591 287.807628,439.287513 285.1,439.47 C276.25,439.47 273.1,432.95 273.1,422.42 C273.1,411.37 277.75,405.75 286.28,405.75 C288.496218,405.846092 290.700542,406.127068 292.87,406.59 L292.87,393.15 L300.3,393.15 L300.28,438.76 Z M292.85,431.27 L292.85,412.92 C290.853068,412.495573 288.820976,412.257881 286.78,412.21 C282.71,412.21 280.57,415.83 280.57,422.48 C280.57,428.88 282.06,432.82 286.26,432.82 C288.527885,432.675464 290.755459,432.151528 292.85,431.27 L292.85,431.27 Z" id="Shape"></path>
            <polygon id="Path" points="325.72 438.76 325.72 394.05 333.22 394.05 333.22 431.65 349.82 431.65 349.82 438.76"></polygon>
            <path d="M381,430 C381.19,432.27 382.09,432.85 384,433.3 L383.54,439.5 C378.96,439.5 376.76,438.66 374.82,437.24 C371.863747,438.628724 368.65459,439.397832 365.39,439.5 C359.77,439.5 355.51,435.43 355.51,429.16 C355.51,422.51 359.71,419.8 366.1,419.34 L373.66,418.7 L373.66,416.6 C373.66,413.89 372.37,412.53 369.91,412.53 C364.1,412.53 357.38,413.18 357.38,413.18 L357.12,407.1 C361.4827,406.389219 365.883796,405.938424 370.3,405.75 C377.21,405.75 381.03,408.75 381.03,416.67 L381,430 Z M366.91,424.58 C364.2,424.71 362.91,426.52 362.91,428.97 C362.91,431.42 364.26,433.3 366.4,433.3 C368.858151,433.207267 371.29146,432.773108 373.63,432.01 L373.63,424.19 L366.91,424.58 Z" id="Shape"></path>
            <path d="M418.61,422.22 C418.61,434.22 414.09,439.47 403.1,439.47 C399.74,439.47 391.47,438.7 391.47,438.7 L391.47,393.15 L398.84,393.15 L398.84,407.43 C401.20607,406.460908 403.717169,405.893122 406.27,405.75 C414.54,405.75 418.61,411.56 418.61,422.22 Z M411.11,422.22 C411.11,416.02 409.17,412.4 405.3,412.4 C403.110251,412.426641 400.935315,412.763319 398.84,413.4 L398.84,432.72 C398.84,432.72 401.84,432.980065 403.04,432.980065 C409.69,433 411.11,428.42 411.11,422.22 Z" id="Shape"></path>
            <path d="M309.691319,205 L309.691319,293 C309.691319,294.219996 309.205359,295.390024 308.342691,296.252691 C307.480024,297.115359 306.309996,297.6 305.09,297.6 L259.51,297.6 L259.51,302.75 C259.507876,304.159013 258.854503,305.487907 257.74,306.35 C257.67,306.42 242.94,318.48 212.54,318.48 L209.71,318.48 C207.244664,318.365209 205.304884,316.333007 205.304884,313.865 C205.304884,311.396993 207.244664,309.364791 209.71,309.25 C232.11,309.86 245.55,303.2 250.35,300.31 L250.35,293 C250.349947,290.454592 252.404645,288.386493 254.95,288.37 L300.53,288.37 L300.53,207.07 L274.22,185.29 L274.22,237.29 C274.239372,238.627728 273.659866,239.904109 272.64,240.77 C271.663668,241.611157 270.380378,242.006295 269.1,241.86 C262.02,240.74 250.35,233.76 250.35,214.71 L250.35,159.66 C250.35,62.25 216.82,17.27 208.91,10.66 C200.91,17.22 166.91,62.03 166.91,159.48 L166.91,173.15 C166.916648,174.420353 166.39074,175.635382 165.46,176.5 L118.15,222 L118.15,269.42 L162.35,275.02 C162.580037,275.023786 162.808612,275.0574 163.03,275.12 L163.48,275.31 C163.600465,275.342325 163.717642,275.385848 163.83,275.44 L165.47,275.44 L165.47,277 C165.63385,277.207464 165.774677,277.432116 165.89,277.67 L166.24,278.67 C166.295102,279.000796 166.328507,279.334843 166.34,279.67 L166.34,315.5 L170.34,315.41 L192.34,298.87 L192.34,205.87 L191.12,205.55 L173.88,248.3 C172.898503,250.632441 170.237849,251.758784 167.88,250.84 C165.534679,249.871586 164.412859,247.189944 165.37,244.84 L184.19,198.25 C185.074857,196.100868 187.410634,194.935115 189.66,195.52 L198.25,197.96 C200.207754,198.535423 201.554285,200.329441 201.56,202.37 L201.56,301.14 C201.567886,302.574936 200.901336,303.930255 199.76,304.8 L174.76,323.62 C173.988618,324.223116 173.039152,324.553671 172.06,324.56 L161.96,324.810251 C160.748064,324.822376 159.576311,324.375823 158.68,323.56 C157.778846,322.674774 157.258626,321.472887 157.23,320.21 L157.23,283.65 L113.03,278.05 C110.751115,277.745828 109.0447,275.809048 109.03,273.51 L109.03,220.05 C109.03399,218.814352 109.534935,217.632266 110.42,216.77 L157.81,171.15 L157.81,159.47 C157.81,157.59 157.81,155.7 157.81,153.82 C157.81,151.94 157.87,150.13 157.92,148.28 C157.97,146.43 158.03,144.67 158.1,142.86 C158.17,141.05 158.25,139.32 158.35,137.55 C158.45,135.78 158.55,134.09 158.66,132.35 C158.77,130.61 158.9,128.96 159.04,127.27 C159.18,125.58 159.32,123.95 159.47,122.27 C159.62,120.59 159.79,119.02 159.97,117.4 C160.15,115.78 160.33,114.23 160.52,112.64 C160.71,111.05 160.91,109.54 161.13,107.99 C161.35,106.44 161.55,104.99 161.78,103.45 C162.01,101.91 162.24,100.45 162.49,99.02 C162.74,97.59 162.98,96.13 163.24,94.69 C163.5,93.25 163.76,91.88 164.04,90.47 C164.32,89.06 164.59,87.73 164.88,86.36 C165.17,84.99 165.46,83.68 165.76,82.36 C166.06,81.04 166.36,79.75 166.68,78.45 C167,77.15 167.31,75.92 167.63,74.65 C167.95,73.38 168.28,72.18 168.63,70.95 C168.98,69.72 169.3,68.55 169.63,67.36 C169.96,66.17 170.32,65.03 170.63,63.86 C170.94,62.69 171.34,61.6 171.71,60.47 C172.08,59.34 172.43,58.27 172.8,57.18 C173.17,56.09 173.54,55.05 173.92,53.99 C174.3,52.93 174.67,51.93 175.06,50.9 C175.45,49.87 175.82,48.9 176.21,47.9 C176.6,46.9 176.98,45.96 177.38,45 C177.78,44.04 178.16,43.13 178.56,42.21 C178.96,41.29 179.35,40.4 179.75,39.51 C180.15,38.62 180.54,37.77 180.95,36.9 C181.36,36.03 181.75,35.23 182.15,34.4 C182.55,33.57 182.95,32.79 183.36,31.99 C183.77,31.19 184.16,30.44 184.57,29.67 C184.98,28.9 185.37,28.18 185.78,27.45 C186.19,26.72 186.57,26.02 186.98,25.32 C187.39,24.62 187.77,23.96 188.18,23.32 C188.59,22.68 188.96,22.02 189.36,21.38 C189.76,20.74 190.14,20.14 190.54,19.53 C190.94,18.92 191.31,18.35 191.71,17.77 C192.11,17.19 192.47,16.65 192.85,16.1 C193.23,15.55 193.56,15 194,14.5 C194.44,14 194.73,13.5 195.11,13.01 C195.49,12.52 195.83,12.07 196.2,11.61 C196.57,11.15 196.9,10.73 197.26,10.29 C197.62,9.85 197.95,9.47 198.26,9.07 C198.57,8.67 198.93,8.3 199.26,7.93 C199.59,7.56 199.9,7.22 200.26,6.87 C200.62,6.52 200.89,6.22 201.26,5.87 L202.16,4.98 L203.03,4.19 C203.3,3.94 203.58,3.7 203.86,3.47 L204.64,2.84 L205.38,2.29 L206.08,1.83 C206.771128,1.36976111 207.564001,1.08487603 208.39,1 C209.282492,0.9394646 210.176682,1.0902094 211,1.44 C211.573289,1.68740743 212.125165,1.98174125 212.65,2.32 L212.83,2.45 C213.12,2.64 213.4,2.84 213.67,3.04 C213.94,3.24 214.27,3.5 214.56,3.73 C214.85,3.96 215.18,4.25 215.48,4.52 L216.48,5.41 C216.813333,5.73 217.146667,6.06333333 217.48,6.41 C217.83,6.76 218.17,7.12 218.48,7.49 C218.79,7.86 219.19,8.27 219.48,8.67 C219.77,9.07 220.21,9.52 220.57,9.96 L221.68,11.34 C222.06,11.83 222.44,12.34 222.81,12.82 C223.18,13.3 223.58,13.82 223.96,14.4 C224.34,14.98 224.75,15.51 225.13,16.08 C225.51,16.65 225.93,17.26 226.32,17.85 L227.52,19.73 C227.93,20.39 228.33,21.05 228.73,21.73 C229.13,22.41 229.55,23.11 229.95,23.81 C230.35,24.51 230.77,25.26 231.17,25.99 C231.57,26.72 232,27.51 232.4,28.27 C232.8,29.03 233.23,29.86 233.63,30.65 C234.03,31.44 234.46,32.3 234.86,33.13 C235.26,33.96 235.69,34.85 236.09,35.72 C236.49,36.59 236.91,37.51 237.31,38.4 C237.71,39.29 238.13,40.26 238.52,41.19 C238.91,42.12 239.33,43.11 239.73,44.08 C240.13,45.05 240.53,46.08 240.92,47.08 C241.31,48.08 241.71,49.14 242.09,50.17 C242.47,51.2 242.87,52.3 243.25,53.37 C243.63,54.44 244.01,55.56 244.38,56.67 C244.75,57.78 245.13,58.93 245.5,60.07 C245.87,61.21 246.23,62.4 246.59,63.57 C246.95,64.74 247.3,65.97 247.65,67.18 C248,68.39 248.34,69.65 248.65,70.89 C248.96,72.13 249.33,73.43 249.65,74.7 C249.97,75.97 250.3,77.31 250.65,78.62 C251,79.93 251.28,81.29 251.58,82.62 C251.88,83.95 252.18,85.36 252.47,86.74 C252.76,88.12 253.04,89.56 253.31,90.97 C253.58,92.38 253.86,93.86 254.12,95.3 C254.38,96.74 254.64,98.3 254.88,99.74 C255.12,101.18 255.36,102.74 255.59,104.29 C255.82,105.84 256.04,107.38 256.25,108.93 C256.46,110.48 256.66,112.1 256.85,113.69 C257.04,115.28 257.23,116.93 257.4,118.55 C257.57,120.17 257.74,121.86 257.89,123.55 C258.04,125.24 258.19,126.93 258.32,128.62 C258.45,130.31 258.58,132.07 258.69,133.8 C258.8,135.53 258.91,137.32 258.99,139.08 C259.07,140.84 259.16,142.67 259.23,144.47 C259.3,146.27 259.35,148.13 259.39,149.96 C259.43,151.79 259.47,153.7 259.49,155.57 C259.49,156.95 259.49,158.34 259.49,159.72 L259.49,214.83 C259.49,223.26 262.22,227.83 264.99,230.21 L264.99,175.61 C264.979769,173.828451 265.996996,172.200476 267.602696,171.428628 C269.208396,170.65678 271.115112,170.879238 272.5,172 L308,201.42 C309.097403,202.279227 309.724039,203.606656 309.691319,205 Z" id="Path"></path>
        </g>
        <path d="M67.1699219,500 L72.2724609,490.087891 L84.1132812,490.087891 L85.1142578,500 L90.8271484,500 L86.7744141,464.257812 L80.0849609,464.257812 L60.96875,500 L67.1699219,500 Z M83.7226562,485.009766 L74.8115234,485.009766 L79.0107422,476.806641 C80.4267578,474.072266 81.5823568,471.573893 82.4775391,469.311523 C82.4775391,470.157878 82.5222982,471.293132 82.6118164,472.717285 C82.7013346,474.141439 83.0716146,478.238932 83.7226562,485.009766 L83.7226562,485.009766 Z M108.817383,500.488281 C111.50293,500.488281 113.985026,499.910482 116.263672,498.754883 L116.263672,498.754883 L116.263672,493.994141 C115.205729,494.514974 114.151855,494.954427 113.102051,495.3125 C112.052246,495.670573 110.92513,495.849609 109.720703,495.849609 C108.109375,495.849609 106.847982,495.361328 105.936523,494.384766 C105.025065,493.408203 104.569336,492.016602 104.569336,490.209961 C104.569336,486.531576 105.383138,483.443197 107.010742,480.944824 C108.638346,478.446452 110.672852,477.197266 113.114258,477.197266 C114.725586,477.197266 116.524089,477.628581 118.509766,478.491211 L118.509766,478.491211 L120.21875,473.999023 C118.054036,473.006185 115.637044,472.509766 112.967773,472.509766 C110.217122,472.509766 107.75944,473.286947 105.594727,474.841309 C103.430013,476.395671 101.749512,478.552246 100.553223,481.311035 C99.3569336,484.069824 98.7587891,487.133789 98.7587891,490.50293 C98.7587891,493.70931 99.6376953,496.17513 101.395508,497.900391 C103.15332,499.625651 105.627279,500.488281 108.817383,500.488281 Z M135.108398,500.488281 C137.793945,500.488281 140.276042,499.910482 142.554688,498.754883 L142.554688,498.754883 L142.554688,493.994141 C141.496745,494.514974 140.442871,494.954427 139.393066,495.3125 C138.343262,495.670573 137.216146,495.849609 136.011719,495.849609 C134.400391,495.849609 133.138997,495.361328 132.227539,494.384766 C131.316081,493.408203 130.860352,492.016602 130.860352,490.209961 C130.860352,486.531576 131.674154,483.443197 133.301758,480.944824 C134.929362,478.446452 136.963867,477.197266 139.405273,477.197266 C141.016602,477.197266 142.815104,477.628581 144.800781,478.491211 L144.800781,478.491211 L146.509766,473.999023 C144.345052,473.006185 141.92806,472.509766 139.258789,472.509766 C136.508138,472.509766 134.050456,473.286947 131.885742,474.841309 C129.721029,476.395671 128.040527,478.552246 126.844238,481.311035 C125.647949,484.069824 125.049805,487.133789 125.049805,490.50293 C125.049805,493.70931 125.928711,496.17513 127.686523,497.900391 C129.444336,499.625651 131.918294,500.488281 135.108398,500.488281 Z M161.545898,500.488281 C163.157227,500.488281 164.618001,500.337728 165.928223,500.036621 C167.238444,499.735514 168.674805,499.226888 170.237305,498.510742 L170.237305,498.510742 L170.237305,493.945312 C168.658529,494.69401 167.291341,495.222982 166.135742,495.532227 C164.980143,495.841471 163.816406,495.996094 162.644531,495.996094 C160.821615,495.996094 159.450358,495.483398 158.530762,494.458008 C157.611165,493.432617 157.151367,492.016602 157.151367,490.209961 L157.151367,490.209961 L157.151367,489.501953 L157.200195,488.745117 L158.25,488.745117 C163.263021,488.745117 167.124512,487.91097 169.834473,486.242676 C172.544434,484.574382 173.899414,482.259115 173.899414,479.296875 C173.899414,477.132161 173.171061,475.459798 171.714355,474.279785 C170.25765,473.099772 168.219076,472.509766 165.598633,472.509766 C162.929362,472.509766 160.516439,473.266602 158.359863,474.780273 C156.203288,476.293945 154.494303,478.438314 153.23291,481.213379 C151.971517,483.988444 151.34082,486.987305 151.34082,490.209961 C151.34082,493.448893 152.240072,495.97168 154.038574,497.77832 C155.837077,499.584961 158.339518,500.488281 161.545898,500.488281 Z M158.591797,484.545898 L157.883789,484.545898 C158.486003,482.250977 159.474772,480.403646 160.850098,479.003906 C162.225423,477.604167 163.694336,476.904297 165.256836,476.904297 C166.282227,476.904297 167.055339,477.13623 167.576172,477.600098 C168.097005,478.063965 168.357422,478.710938 168.357422,479.541016 C168.357422,481.136068 167.494792,482.368978 165.769531,483.239746 C164.044271,484.110514 161.651693,484.545898 158.591797,484.545898 L158.591797,484.545898 Z M185.151367,500 L193.232422,462.011719 L187.495117,462.011719 L179.438477,500 L185.151367,500 Z M207.536133,500.488281 C209.147461,500.488281 210.608236,500.337728 211.918457,500.036621 C213.228678,499.735514 214.665039,499.226888 216.227539,498.510742 L216.227539,498.510742 L216.227539,493.945312 C214.648763,494.69401 213.281576,495.222982 212.125977,495.532227 C210.970378,495.841471 209.806641,495.996094 208.634766,495.996094 C206.811849,495.996094 205.440592,495.483398 204.520996,494.458008 C203.6014,493.432617 203.141602,492.016602 203.141602,490.209961 L203.141602,490.209961 L203.141602,489.501953 L203.19043,488.745117 L204.240234,488.745117 C209.253255,488.745117 213.114746,487.91097 215.824707,486.242676 C218.534668,484.574382 219.889648,482.259115 219.889648,479.296875 C219.889648,477.132161 219.161296,475.459798 217.70459,474.279785 C216.247884,473.099772 214.20931,472.509766 211.588867,472.509766 C208.919596,472.509766 206.506673,473.266602 204.350098,474.780273 C202.193522,476.293945 200.484538,478.438314 199.223145,481.213379 C197.961751,483.988444 197.331055,486.987305 197.331055,490.209961 C197.331055,493.448893 198.230306,495.97168 200.028809,497.77832 C201.827311,499.584961 204.329753,500.488281 207.536133,500.488281 Z M204.582031,484.545898 L203.874023,484.545898 C204.476237,482.250977 205.465007,480.403646 206.840332,479.003906 C208.215658,477.604167 209.68457,476.904297 211.24707,476.904297 C212.272461,476.904297 213.045573,477.13623 213.566406,477.600098 C214.08724,478.063965 214.347656,478.710938 214.347656,479.541016 C214.347656,481.136068 213.485026,482.368978 211.759766,483.239746 C210.034505,484.110514 207.641927,484.545898 204.582031,484.545898 L204.582031,484.545898 Z M231.19043,500 L233.77832,487.792969 C234.413086,484.814453 235.536133,482.405599 237.147461,480.566406 C238.758789,478.727214 240.589844,477.807617 242.640625,477.807617 C243.421875,477.807617 244.251953,477.921549 245.130859,478.149414 L245.130859,478.149414 L246.375977,472.802734 C245.627279,472.607422 244.748372,472.509766 243.739258,472.509766 C242.225586,472.509766 240.793294,472.937012 239.442383,473.791504 C238.091471,474.645996 236.74056,476.049805 235.389648,478.00293 L235.389648,478.00293 L235.169922,478.00293 L235.682617,472.998047 L231.19043,472.998047 L225.428711,500 L231.19043,500 Z M256.431641,500.488281 C259.540365,500.488281 262.380534,498.893229 264.952148,495.703125 L264.952148,495.703125 L265.098633,495.703125 L264.585938,500 L269.029297,500 L274.791016,472.998047 L270.396484,472.998047 L268.882812,476.855469 L268.638672,476.855469 C268.003906,475.439453 267.116862,474.361165 265.977539,473.620605 C264.838216,472.880046 263.479167,472.509766 261.900391,472.509766 C259.524089,472.509766 257.343099,473.343913 255.357422,475.012207 C253.371745,476.680501 251.813314,478.94694 250.682129,481.811523 C249.550944,484.676107 248.985352,487.752279 248.985352,491.040039 C248.985352,494.034831 249.652669,496.358236 250.987305,498.010254 C252.32194,499.662272 254.136719,500.488281 256.431641,500.488281 Z M258.53125,495.849609 C257.359375,495.849609 256.443848,495.438639 255.784668,494.616699 C255.125488,493.794759 254.795898,492.553711 254.795898,490.893555 C254.795898,488.582357 255.162109,486.34847 255.894531,484.191895 C256.626953,482.035319 257.603516,480.330404 258.824219,479.077148 C260.044922,477.823893 261.347005,477.197266 262.730469,477.197266 C263.967448,477.197266 264.968424,477.63265 265.733398,478.503418 C266.498372,479.374186 266.880859,480.525716 266.880859,481.958008 C266.880859,484.464518 266.46582,486.775716 265.635742,488.891602 C264.805664,491.007487 263.747721,492.696126 262.461914,493.95752 C261.176107,495.218913 259.865885,495.849609 258.53125,495.849609 Z M288.191406,500.488281 C289.167969,500.488281 290.144531,500.382487 291.121094,500.170898 C292.097656,499.95931 292.870768,499.715169 293.44043,499.438477 L293.44043,499.438477 L293.44043,495.092773 C292.089518,495.597331 290.860677,495.849609 289.753906,495.849609 C288.923828,495.849609 288.305339,495.64209 287.898438,495.227051 C287.491536,494.812012 287.288086,494.254557 287.288086,493.554688 C287.288086,492.952474 287.39388,492.203776 287.605469,491.308594 L287.605469,491.308594 L290.583984,477.34375 L297.34668,477.34375 L298.298828,472.998047 L291.487305,472.998047 L292.756836,466.992188 L289.192383,466.992188 L286.042969,472.65625 L281.404297,474.658203 L280.891602,477.34375 L284.84668,477.34375 L281.892578,491.259766 C281.632161,492.464193 281.501953,493.530273 281.501953,494.458008 C281.501953,498.47819 283.731771,500.488281 288.191406,500.488281 Z M312.504883,500.439453 C315.206706,500.439453 317.595215,499.719238 319.67041,498.278809 C321.745605,496.838379 323.377279,494.771322 324.56543,492.077637 C325.753581,489.383952 326.347656,486.393229 326.347656,483.105469 C326.347656,479.85026 325.452474,477.278646 323.662109,475.390625 C321.871745,473.502604 319.389648,472.558594 316.21582,472.558594 C313.465169,472.558594 311.040039,473.311361 308.94043,474.816895 C306.84082,476.322428 305.209147,478.426107 304.04541,481.12793 C302.881673,483.829753 302.299805,486.80013 302.299805,490.039062 C302.299805,493.245443 303.219401,495.780436 305.058594,497.644043 C306.897786,499.50765 309.379883,500.439453 312.504883,500.439453 Z M312.895508,495.751953 C311.316732,495.751953 310.124512,495.27181 309.318848,494.311523 C308.513184,493.351237 308.110352,491.967773 308.110352,490.161133 C308.110352,487.898763 308.439941,485.770671 309.099121,483.776855 C309.758301,481.78304 310.686035,480.204264 311.882324,479.040527 C313.078613,477.87679 314.433594,477.294922 315.947266,477.294922 C317.428385,477.294922 318.567708,477.787272 319.365234,478.771973 C320.16276,479.756673 320.561523,481.119792 320.561523,482.861328 C320.561523,485.253906 320.236003,487.447103 319.584961,489.440918 C318.933919,491.434733 318.022461,492.985026 316.850586,494.091797 C315.678711,495.198568 314.360352,495.751953 312.895508,495.751953 Z M338.576172,500 L341.164062,487.792969 C341.798828,484.814453 342.921875,482.405599 344.533203,480.566406 C346.144531,478.727214 347.975586,477.807617 350.026367,477.807617 C350.807617,477.807617 351.637695,477.921549 352.516602,478.149414 L352.516602,478.149414 L353.761719,472.802734 C353.013021,472.607422 352.134115,472.509766 351.125,472.509766 C349.611328,472.509766 348.179036,472.937012 346.828125,473.791504 C345.477214,474.645996 344.126302,476.049805 342.775391,478.00293 L342.775391,478.00293 L342.555664,478.00293 L343.068359,472.998047 L338.576172,472.998047 L332.814453,500 L338.576172,500 Z" id="Accelerator" fill="#FFFFFF" fill-rule="nonzero"></path>
    </g>
</svg>