<?xml version="1.0" encoding="UTF-8"?>
<svg width="24px" height="24px" viewBox="0 0 24 24" version="1.1" xmlns="http://www.w3.org/2000/svg" xmlns:xlink="http://www.w3.org/1999/xlink">
    <!-- Generator: Sketch 63.1 (92452) - https://sketch.com -->
    <title>Group</title>
    <desc>Created with Sketch.</desc>
    <g id="New" stroke="none" stroke-width="1" fill="none" fill-rule="evenodd">
        <g id="Group" fill="#212121" fill-rule="nonzero">
            <path d="M12.229431,0.12915 C5.8029779,0.12915 0.5875004,5.34451 0.5875004,11.77082 C0.5875004,18.19712 5.8029779,23.41249 12.229431,23.41249 C18.655885,23.41249 23.870833,18.19712 23.870833,11.77082 C23.870833,5.34451 18.655885,0.12915 12.229431,0.12915 Z M12.22996,4.19073 C14.1738097,4.19073 15.749614,5.76649445 15.749614,7.7103 C15.749614,8.64375013 15.3787968,9.53896913 14.7187334,10.1990186 C14.0586701,10.8590681 13.1634313,11.22988 12.22996,11.22988 C11.2964888,11.22988 10.4012504,10.8590677 9.74118723,10.1990183 C9.08112409,9.53896881 8.710307,8.64374995 8.710307,7.7103 C8.710307,5.76649484 10.2861107,4.19073 12.22996,4.19073 L12.22996,4.19073 Z M12.22996,13.46134 C15.968138,13.46134 18.998525,14.79468 18.998525,16.43944 C18.998525,18.0842 15.968138,20.06688 12.22996,20.06688 C8.4917829,20.06688 5.4613958,18.0842 5.4613958,16.43944 C5.4613958,14.79468 8.4917829,13.46134 12.22996,13.46134 Z" id="Shape"></path>
        </g>
    </g>
</svg>